<?xml version="1.0" encoding="utf-8"?>
<!-- Generator: Adobe Illustrator 19.0.1, SVG Export Plug-In . SVG Version: 6.00 Build 0)  -->
<svg version="1.1" xmlns="http://www.w3.org/2000/svg" xmlns:xlink="http://www.w3.org/1999/xlink" x="0px" y="0px"
	 viewBox="0 0 209.4 43.7" enable-background="new 0 0 209.4 43.7" xml:space="preserve">
<g id="Layer_3" display="none">
	<rect x="-207.8" y="-201.8" display="inline" fill="#202121" width="641.5" height="444.5"/>
</g>
<g id="Layer_1">
	<g>
		<g>
			<path fill="#FFFFFF" d="M63.9,6.8v26.1h-2.1V6.8h-9.8V4.9h21.6v1.9H63.9z"/>
			<path fill="#FFFFFF" d="M80.1,31.5c3.2,0,5.3-1.4,7-3.2l1.4,1.2c-2.1,2.2-4.5,3.8-8.4,3.8c-5.4,0-10-4.3-10-10.6v-0.1
				c0-5.9,4.2-10.6,9.7-10.6c5.7,0,9.4,4.6,9.4,10.7v0.1c0,0.3,0,0.4,0,0.7H72.1C72.4,28.6,76.1,31.5,80.1,31.5z M86.9,21.7
				c-0.3-4.1-2.6-7.9-7.3-7.9c-4,0-7.2,3.4-7.5,7.9H86.9z"/>
			<path fill="#FFFFFF" d="M120.8,32.9V20.8c0-4.4-2.3-7-6-7c-3.4,0-6.4,2.6-6.4,7.2v11.9h-2V20.6c0-4.2-2.3-6.8-6-6.8
				c-3.6,0-6.5,3.2-6.5,7.3v11.8h-2V12.5h2v3.6c1.3-2.1,3.2-4.1,6.8-4.1c3.6,0,5.8,2,6.9,4.4c1.3-2.3,3.5-4.4,7.4-4.4
				c4.8,0,7.8,3.4,7.8,8.5v12.4H120.8z"/>
			<path fill="#FFFFFF" d="M137.5,33.4c-4.1,0-6.7-2.3-8.4-4.9v10.8h-2V12.5h2V17c1.8-2.7,4.4-5,8.4-5c4.9,0,9.9,4,9.9,10.6v0.1
				C147.5,29.3,142.5,33.4,137.5,33.4z M145.3,22.7c0-5.4-3.7-8.8-8-8.8c-4.2,0-8.3,3.6-8.3,8.8v0.1c0,5.2,4.1,8.8,8.3,8.8
				C141.8,31.5,145.3,28.2,145.3,22.7L145.3,22.7z"/>
			<path fill="#FFFFFF" d="M159.8,33.4c-6,0-10.4-4.9-10.4-10.6v-0.1c0-5.7,4.4-10.7,10.5-10.7c6,0,10.4,4.9,10.4,10.6v0.1
				C170.3,28.4,165.9,33.4,159.8,33.4z M168.2,22.7c0-4.9-3.7-8.8-8.4-8.8c-4.8,0-8.3,4-8.3,8.8v0.1c0,4.9,3.7,8.8,8.4,8.8
				C164.7,31.5,168.2,27.6,168.2,22.7L168.2,22.7z"/>
			<path fill="#FFFFFF" d="M174.3,32.9v-28h2.1v28H174.3z"/>
			<path fill="#FFFFFF" d="M207.9,33.7l-3.9-3.6c-2.4,2-5.4,3.2-9,3.2c-8.5,0-14-6.8-14-14.4v-0.1c0-7.6,5.6-14.5,14.1-14.5
				c8.5,0,14,6.8,14,14.4c0,0,0,0,0,0.1c0,3.7-1.3,7.2-3.7,9.9l4,3.4L207.9,33.7z M206.9,18.9c0-6.9-5-12.6-12-12.6
				c-6.9,0-11.9,5.6-11.9,12.5v0.1c0,6.9,5,12.6,12,12.6c2.9,0,5.5-1,7.4-2.6l-5.4-4.6l1.5-1.6l5.4,4.9
				C205.8,25.2,206.9,22.2,206.9,18.9L206.9,18.9z"/>
		</g>
	</g>
</g>
<g id="Layer_2">
	<g>
		<path fill="#D5D9E0" d="M4.9,16.1c0.8-2.3,2-4.4,3.6-6.2L5.7,7.1C3.6,9.4,2,12,1.1,15.1L4.9,16.1z"/>
		<path fill="#C2C9D4" d="M4.4,25.7c-0.5-2.5-0.6-5.1,0-7.7L0.5,17c-0.8,3.3-0.7,6.7,0,9.8L4.4,25.7z"/>
		<path fill="#F7941E" d="M17.9,4.4c2.5-0.6,5.1-0.6,7.7,0l1.1-3.8c-3.3-0.8-6.7-0.7-9.8,0L17.9,4.4z"/>
		<path fill="#EEEFF2" d="M9.9,8.5C11.7,7,13.8,5.7,16,5l-1.1-3.8c-2.9,1-5.6,2.5-7.9,4.6L9.9,8.5z"/>
		<path fill="#597692" d="M28.6,1.1l-1.1,3.8c2.3,0.8,4.4,2,6.2,3.6l2.8-2.8C34.3,3.7,31.6,2.1,28.6,1.1z"/>
		<path fill="#8395AB" d="M33.7,35.1c-1.8,1.6-3.9,2.8-6.1,3.6l1.1,3.8c2.9-1,5.6-2.5,7.9-4.6L33.7,35.1z"/>
		<path fill="#647D98" d="M35.1,9.9c1.6,1.8,2.8,3.9,3.6,6.1l3.8-1.1c-1-2.9-2.5-5.6-4.6-7.8L35.1,9.9z"/>
		<path fill="#6E859E" d="M39.2,18c0.6,2.5,0.6,5.1,0,7.7l3.8,1.1c0.8-3.3,0.7-6.7,0-9.8L39.2,18z"/>
		<path fill="#A5B1C2" d="M8.5,33.7c-1.6-1.8-2.8-3.9-3.6-6.1l-3.8,1.1c1,2.9,2.5,5.6,4.6,7.9L8.5,33.7z"/>
		<path fill="#788CA5" d="M38.7,27.5c-0.8,2.3-2,4.4-3.6,6.2l2.8,2.8c2-2.2,3.6-4.9,4.6-7.9L38.7,27.5z"/>
		<path fill="#8E9EB3" d="M25.7,39.2c-2.5,0.6-5.1,0.6-7.7,0L17,43.1c3.3,0.8,6.7,0.7,9.8,0L25.7,39.2z"/>
		<path fill="#9AA7BA" d="M15,42.6l1.1-3.8c-2.3-0.8-4.4-2-6.2-3.6L7.1,38C9.3,40,12,41.6,15,42.6z"/>
		
			<path fill="#F7941E" stroke="#F7941E" stroke-width="0.5" stroke-linecap="round" stroke-linejoin="round" stroke-miterlimit="10" d="
			M25.3,6.9c-1-0.2-2-0.4-3.1-0.4c-1.3,0-2.7,0.1-3.9,0.4l3.2,14.7L25.3,6.9z"/>
	</g>
</g>
</svg>
